<?xml version="1.0" encoding="UTF-8" standalone="no"?>
<svg
   xmlns:dc="http://purl.org/dc/elements/1.1/"
   xmlns:cc="http://creativecommons.org/ns#"
   xmlns:rdf="http://www.w3.org/1999/02/22-rdf-syntax-ns#"
   xmlns:svg="http://www.w3.org/2000/svg"
   xmlns="http://www.w3.org/2000/svg"
   xmlns:sodipodi="http://sodipodi.sourceforge.net/DTD/sodipodi-0.dtd"
   xmlns:inkscape="http://www.inkscape.org/namespaces/inkscape"
   width="600"
   height="300"
   viewBox="0 0 158.75 79.374999"
   version="1.1"
   id="svg8"
   inkscape:version="1.0.1 (c497b03c, 2020-09-10)"
   sodipodi:docname="poipiku_twitter_card.svg">
  <defs
     id="defs2">
    <clipPath
       id="clipPath3802-9"
       clipPathUnits="userSpaceOnUse">
      <path
         id="path3800-9"
         d="M 0,1024 H 1024 V 0 H 0 Z" />
    </clipPath>
    <clipPath
       id="clipPath3810-1"
       clipPathUnits="userSpaceOnUse">
      <path
         id="path3808-7"
         d="M 496.174,467.94 H 704.918 V 308.479 H 496.174 Z" />
    </clipPath>
    <clipPath
       clipPathUnits="userSpaceOnUse"
       id="clipPath3802-9-3">
      <path
         d="M 0,1024 H 1024 V 0 H 0 Z"
         id="path3800-9-8" />
    </clipPath>
    <clipPath
       clipPathUnits="userSpaceOnUse"
       id="clipPath3810-1-0">
      <path
         d="M 496.174,467.94 H 704.918 V 308.479 H 496.174 Z"
         id="path3808-7-2" />
    </clipPath>
  </defs>
  <sodipodi:namedview
     showguides="false"
     id="base"
     pagecolor="#ffffff"
     bordercolor="#666666"
     borderopacity="1.0"
     inkscape:pageopacity="0.0"
     inkscape:pageshadow="2"
     inkscape:zoom="0.52690922"
     inkscape:cx="45.719853"
     inkscape:cy="346.66396"
     inkscape:document-units="px"
     inkscape:current-layer="layer1"
     inkscape:document-rotation="0"
     showgrid="false"
     inkscape:lockguides="false"
     inkscape:window-width="1440"
     inkscape:window-height="804"
     inkscape:window-x="146"
     inkscape:window-y="43"
     inkscape:window-maximized="0"
     units="px" />
  <metadata
     id="metadata5">
    <rdf:RDF>
      <cc:Work
         rdf:about="">
        <dc:format>image/svg+xml</dc:format>
        <dc:type
           rdf:resource="http://purl.org/dc/dcmitype/StillImage" />
        <dc:title />
      </cc:Work>
    </rdf:RDF>
  </metadata>
  <g
     inkscape:label="レイヤー 1"
     inkscape:groupmode="layer"
     id="layer1">
    <g
       id="g2782"
       inkscape:export-filename="/Users/kazuhirokawai/git/poipiku/WebContent/img/poipiku_twitter_card.png"
       inkscape:export-xdpi="96"
       inkscape:export-ydpi="96">
      <rect
         height="79.375008"
         y="-3.2963637e-06"
         x="-3.5181807e-07"
         width="158.75"
         id="rect10"
         style="fill:#f9f9f9;fill-rule:evenodd;stroke:none;stroke-width:0.198437" />
      <g
         id="g4719-2-9"
         transform="matrix(0.17682973,0,0,0.17682973,91.571344,-109.2522)">
        <g
           id="g3788-3-0"
           transform="matrix(0.69887226,0,0,-0.69887226,76.91293,752.11373)">
          <path
             d="m 0,0 v -243.996 l -208.744,-93.761 -208.743,93.761 V 0"
             style="fill:#3498db;fill-opacity:1;fill-rule:nonzero;stroke:none"
             id="path3790-6-5" />
        </g>
        <g
           id="g3792-5-2"
           transform="matrix(0.69887226,0,0,-0.69887226,-68.97225,696.3923)">
          <path
             d="M 0,0 -208.744,-79.728 0,-159.46 208.744,-79.728 Z"
             style="fill:#bad1db;fill-opacity:1;fill-rule:nonzero;stroke:none"
             id="path3794-5-2" />
        </g>
        <g
           transform="matrix(0.69887226,0,0,-0.69887226,-415.7347,1023.4223)"
           id="g3796-8-7">
          <g
             id="g3798-1-3"
             clip-path="url(#clipPath3802-9-3)">
            <g
               id="g3804-4-7">
              <g
                 id="g3806-7-9" />
              <g
                 id="g3818-1-0">
                <g
                   clip-path="url(#clipPath3810-1-0)"
                   opacity="0.300003"
                   id="g3816-3-2">
                  <g
                     transform="translate(496.1743,308.4795)"
                     id="g3814-8-3">
                    <path
                       d="M 0,0 208.744,79.732 0,159.46 Z"
                       style="fill:#ffffff;fill-opacity:1;fill-rule:nonzero;stroke:none"
                       id="path3812-4-9" />
                  </g>
                </g>
              </g>
            </g>
            <g
               id="g3820-8-9"
               transform="translate(402.9238,197.0283)">
              <path
                 d="m 0,0 c -2.949,1.367 -5.35,4.863 -5.371,7.825 -0.017,2.975 2.37,4.288 5.336,2.931 l 11.203,-5.121 48.7,25.621 c 2.113,1.102 5.513,-0.496 7.596,-3.569 2.083,-3.077 2.062,-6.467 -0.049,-7.572 L 17.161,-6.318 c -1,-0.521 -2.338,-0.456 -3.739,0.184 L 0.035,-0.015 C 0.024,-0.011 0.011,-0.005 0,0"
                 style="fill:#ffffff;fill-opacity:1;fill-rule:nonzero;stroke:none"
                 id="path3822-0-7" />
            </g>
            <g
               id="g3824-4-0"
               transform="translate(444.7612,149.8555)">
              <path
                 d="m 0,0 c -2.967,1.375 -5.371,4.895 -5.371,7.859 v 55.534 c 0,2.964 2.404,4.255 5.371,2.88 2.967,-1.375 5.371,-4.895 5.371,-7.86 V 2.881 C 5.371,-0.084 2.967,-1.375 0,0"
                 style="fill:#ffffff;fill-opacity:1;fill-rule:nonzero;stroke:none"
                 id="path3826-6-3" />
            </g>
            <g
               id="g3828-0-9"
               transform="translate(371.5503,236.5576)">
              <path
                 d="m 0,0 -54.144,25.097 c -2.966,1.375 -5.37,4.895 -5.37,7.86 0,2.965 2.404,4.257 5.37,2.881 L -2.233,11.776 8.621,17.645 c 2.089,1.136 2.323,-4.053 4.427,-7.12 2.103,-3.066 5.276,-2.852 3.183,-3.984 L 3.805,-0.181 C 2.799,-0.728 1.429,-0.662 0,0"
                 style="fill:#ffffff;fill-opacity:1;fill-rule:nonzero;stroke:none"
                 id="path3830-3-8" />
            </g>
            <g
               id="g3832-2-6"
               transform="translate(348.2402,193.4932)">
              <path
                 d="m 0,0 c -2.963,1.373 -5.367,4.89 -5.367,7.854 v 69.483 c 0,2.965 2.404,4.253 5.367,2.879 2.963,-1.373 5.367,-4.89 5.367,-7.855 V 2.879 C 5.367,-0.086 2.963,-1.374 0,0"
                 style="fill:#ffffff;fill-opacity:1;fill-rule:nonzero;stroke:none"
                 id="path3834-6-5" />
            </g>
            <g
               id="g3836-9-7"
               transform="translate(319.3511,206.6074)">
              <path
                 d="m 0,0 c -0.811,0.376 -1.632,0.94 -2.404,1.686 -2.652,2.559 -3.721,6.282 -2.393,8.316 l 2.91,4.452 0.112,19.033 c 0.018,2.947 2.418,4.219 5.371,2.85 0.01,-0.005 0.021,-0.009 0.031,-0.016 2.967,-1.39 5.357,-4.919 5.339,-7.876 L 8.848,8.161 C 8.841,7.339 8.648,6.614 8.278,6.049 L 4.805,0.736 C 3.861,-0.704 1.967,-0.911 0,0"
                 style="fill:#ffffff;fill-opacity:1;fill-rule:nonzero;stroke:none"
                 id="path3838-4-6" />
            </g>
            <g
               id="g3840-1-2"
               transform="translate(377.8784,179.7549)">
              <path
                 d="m 0,0 c -1.967,0.912 -3.857,2.871 -4.801,5.186 l -3.477,8.533 c -0.37,0.911 -0.566,1.815 -0.573,2.645 L -8.97,36.76 c -0.017,2.972 2.373,4.284 5.34,2.925 0.01,-0.003 0.021,-0.008 0.031,-0.013 2.953,-1.368 5.353,-4.866 5.37,-7.828 L 1.883,12.707 4.794,5.56 C 6.125,2.292 5.056,-0.441 2.408,-0.545 1.632,-0.573 0.811,-0.376 0,0"
                 style="fill:#ffffff;fill-opacity:1;fill-rule:nonzero;stroke:none"
                 id="path3842-3-7" />
            </g>
            <g
               id="g3844-7-0"
               transform="translate(392.4321,258.002)">
              <path
                 d="m 0,0 c -3.809,1.766 -6.905,0.104 -6.905,-3.702 0,-3.808 3.096,-8.339 6.905,-10.104 3.805,-1.764 6.901,-0.103 6.901,3.704 C 6.901,-6.295 3.805,-1.764 0,0 m 0,-24.54 c -9.725,4.507 -17.639,16.089 -17.639,25.813 0,9.725 7.914,13.969 17.639,9.461 9.725,-4.507 17.636,-16.088 17.636,-25.812 0,-9.724 -7.911,-13.97 -17.636,-9.462"
                 style="fill:#ffffff;fill-opacity:1;fill-rule:nonzero;stroke:none"
                 id="path3846-8-3" />
            </g>
            <g
               id="g3848-8-9"
               transform="translate(618.0664,212.957)">
              <path
                 d="m 0,0 c -1.35,-0.628 -2.702,-0.74 -3.732,-0.189 -2.06,1.101 -2.06,4.442 0,7.46 l 9.441,13.833 v 25.163 c 0,2.913 2.362,6.375 5.277,7.731 2.915,1.356 5.277,0.091 5.277,-2.822 V 23.829 c 0,-1.399 -0.556,-3 -1.545,-4.449 L 3.731,3.283 C 2.702,1.773 1.35,0.628 0,0"
                 style="fill:#ffffff;fill-opacity:1;fill-rule:nonzero;stroke:none"
                 id="path3850-3-9" />
            </g>
            <g
               id="g3852-8-9"
               transform="translate(646.6992,197.3516)">
              <path
                 d="m 0,0 c -1.349,-0.628 -2.702,-0.74 -3.731,-0.189 -2.061,1.101 -2.061,4.442 0,7.46 l 23.757,34.81 V 76.575 L -17.646,59.05 c -2.916,-1.357 -5.278,-0.091 -5.278,2.822 0,2.913 2.362,6.375 5.278,7.732 l 42.949,19.98 c 2.915,1.355 5.277,0.091 5.277,-2.822 V 44.806 c 0,-1.4 -0.557,-3.001 -1.545,-4.45 L 3.732,3.282 C 2.702,1.773 1.35,0.627 0,0"
                 style="fill:#ffffff;fill-opacity:1;fill-rule:nonzero;stroke:none"
                 id="path3854-1-1" />
            </g>
            <g
               id="g3856-5-7"
               transform="translate(585.3652,168.9248)">
              <path
                 d="m 0,0 -30.965,-14.404 c -1.4,-0.653 -2.739,-0.719 -3.731,-0.19 l -14.317,7.657 c -0.989,0.528 -1.546,1.612 -1.546,3.011 v 52.867 c 0,2.913 2.363,6.376 5.278,7.732 2.915,1.356 5.277,0.092 5.277,-2.821 V 3.169 L -28.777,-2.834 0,10.554 C 2.914,11.909 5.276,10.645 5.276,7.731 5.276,4.818 2.914,1.355 0,0"
                 style="fill:#ffffff;fill-opacity:1;fill-rule:nonzero;stroke:none"
                 id="path3858-3-2" />
            </g>
            <g
               id="g3860-5-3"
               transform="translate(573.7129,215.6484)">
              <path
                 d="m 0,0 -31.799,-14.793 c -2.915,-1.355 -5.277,-0.091 -5.277,2.822 0,2.913 2.362,6.376 5.277,7.732 L -2.188,9.536 8.085,24.587 c 2.06,3.018 0.461,-1.368 2.527,-2.47 2.06,-1.101 6.996,1.5 4.937,-1.518 L 3.731,3.282 C 2.743,1.832 1.4,0.651 0,0"
                 style="fill:#ffffff;fill-opacity:1;fill-rule:nonzero;stroke:none"
                 id="path3862-4-6" />
            </g>
            <g
               id="g3864-3-5"
               transform="translate(595.0264,255.8437)">
              <path
                 d="m 0,0 c -3.698,-1.721 -6.709,-6.131 -6.709,-9.828 0,-3.697 3.011,-5.306 6.709,-3.586 3.697,1.72 6.705,6.129 6.705,9.826 C 6.705,0.109 3.697,1.72 0,0 m 0,-23.961 c -9.514,-4.426 -17.256,-0.287 -17.256,9.227 0,9.513 7.742,20.855 17.256,25.281 9.513,4.425 17.252,0.285 17.252,-9.229 0,-9.513 -7.739,-20.853 -17.252,-25.279"
                 style="fill:#ffffff;fill-opacity:1;fill-rule:nonzero;stroke:none"
                 id="path3866-6-5" />
            </g>
          </g>
        </g>
      </g>
    </g>
  </g>
</svg>
